<?xml version="1.0" encoding="UTF-8" standalone="no"?>
<svg
   xmlns:dc="http://purl.org/dc/elements/1.1/"
   xmlns:cc="http://creativecommons.org/ns#"
   xmlns:rdf="http://www.w3.org/1999/02/22-rdf-syntax-ns#"
   xmlns:svg="http://www.w3.org/2000/svg"
   xmlns="http://www.w3.org/2000/svg"
   xmlns:sodipodi="http://sodipodi.sourceforge.net/DTD/sodipodi-0.dtd"
   xmlns:inkscape="http://www.inkscape.org/namespaces/inkscape"
   inkscape:export-ydpi="192"
   inkscape:export-xdpi="192"
   inkscape:export-filename="D:\2D\inkscape\medkit.png"
   sodipodi:docname="medkit.svg"
   inkscape:version="1.0 (4035a4fb49, 2020-05-01)"
   id="svg2798"
   version="1.1"
   viewBox="0 0 8.4666665 8.4666669"
   height="32"
   width="32">
  <defs
     id="defs2792" />
  <sodipodi:namedview
     inkscape:window-maximized="1"
     inkscape:window-y="-8"
     inkscape:window-x="-8"
     inkscape:window-height="837"
     inkscape:window-width="1600"
     units="px"
     showgrid="true"
     inkscape:document-rotation="0"
     inkscape:current-layer="layer1"
     inkscape:document-units="mm"
     inkscape:cy="15.504049"
     inkscape:cx="12.400672"
     inkscape:zoom="16"
     inkscape:pageshadow="2"
     inkscape:pageopacity="0.0"
     borderopacity="1.0"
     bordercolor="#666666"
     pagecolor="#ffffff"
     id="base">
    <inkscape:grid
       empspacing="8"
       spacingy="0.26458333"
       spacingx="0.26458333"
       id="grid3361"
       type="xygrid" />
  </sodipodi:namedview>
  <metadata
     id="metadata2795">
    <rdf:RDF>
      <cc:Work
         rdf:about="">
        <dc:format>image/svg+xml</dc:format>
        <dc:type
           rdf:resource="http://purl.org/dc/dcmitype/StillImage" />
        <dc:title></dc:title>
      </cc:Work>
    </rdf:RDF>
  </metadata>
  <g
     id="layer1"
     inkscape:groupmode="layer"
     inkscape:label="Layer 1">
    <rect
       rx="0"
       ry="0.46335685"
       y="0.79374999"
       x="0.26458332"
       height="6.8791666"
       width="7.9375005"
       id="rect3363"
       style="fill:#88c788;stroke:#000000;stroke-width:0.05291667;stop-color:#000000;fill-opacity:1;stroke-opacity:1;stroke-miterlimit:4;stroke-dasharray:none" />
    <rect
       ry="0.46335685"
       y="1.3229166"
       x="0.79374999"
       height="5.8208332"
       width="6.8791666"
       id="rect3365"
       style="fill:#88c788;fill-opacity:1;stroke:#000000;stroke-width:0.0529167;stroke-miterlimit:4;stroke-dasharray:none;stroke-opacity:1;stop-color:#000000" />
    <ellipse
       ry="2.6458333"
       rx="2.5135417"
       cy="4.2333331"
       cx="4.2333331"
       id="path3367"
       style="fill:#88c788;fill-opacity:1;stroke:#000000;stroke-width:0.0529167;stroke-miterlimit:4;stroke-dasharray:none;stroke-opacity:1;stop-color:#000000" />
    <path
       transform="scale(0.26458333)"
       d="M 15.5 7.5 C 14.946 7.5 14.5 7.9460003 14.5 8.5 L 14.5 14 L 9 14 C 8.4460003 14 8 14.446 8 15 L 8 16 C 8 16.554 8.4460003 17 9 17 L 14.5 17 L 14.5 22.5 C 14.5 23.054 14.946 23.5 15.5 23.5 L 16.5 23.5 C 17.054 23.5 17.5 23.054 17.5 22.5 L 17.5 17 L 23 17 C 23.554 17 24 16.554 24 16 L 24 15 C 24 14.446 23.554 14 23 14 L 17.5 14 L 17.5 8.5 C 17.5 7.9460003 17.054 7.5 16.5 7.5 L 15.5 7.5 z "
       style="fill:#f2f2f2;fill-opacity:1;stroke:#000000;stroke-width:0.2;stroke-miterlimit:4;stroke-dasharray:none;stroke-opacity:1;stop-color:#000000"
       id="rect3369" />
  </g>
</svg>
